<?xml version="1.0" standalone="no"?>
<!DOCTYPE svg PUBLIC "-//W3C//DTD SVG 20010904//EN"
 "http://www.w3.org/TR/2001/REC-SVG-20010904/DTD/svg10.dtd">
<svg version="1.0" xmlns="http://www.w3.org/2000/svg"
 width="397.000000pt" height="397.000000pt" viewBox="0 0 397.000000 397.000000"
 preserveAspectRatio="xMidYMid meet">
<metadata>
Created by potrace 1.11, written by Peter Selinger 2001-2013
</metadata>
<g transform="translate(0.000000,397.000000) scale(0.100000,-0.100000)"
fill="#000000" stroke="none">
<path d="M1749 3925 c-14 -7 -31 -26 -37 -40 -10 -21 -18 -26 -33 -22 -33 9
-139 -13 -191 -39 -84 -43 -195 -124 -288 -211 -49 -47 -90 -90 -90 -96 1 -7
9 -3 19 8 9 11 39 40 66 65 54 50 46 35 -30 -55 -118 -138 -175 -232 -175
-287 0 -18 -9 -61 -20 -94 -12 -42 -19 -94 -20 -160 -1 -55 -3 -127 -4 -162
-2 -49 1 -65 13 -72 13 -7 16 -28 14 -133 -1 -68 -7 -144 -12 -168 -15 -65
-13 -170 5 -268 20 -104 56 -229 62 -213 7 22 29 13 27 -10 -3 -35 23 -88 43
-88 10 0 28 7 40 16 13 9 25 14 27 12 2 -2 20 -73 39 -158 l36 -155 -25 -18
c-14 -10 -25 -24 -25 -30 0 -6 9 -1 20 11 22 23 40 29 40 13 0 -6 -5 -13 -11
-17 -17 -10 -3 -60 33 -112 18 -26 32 -50 30 -55 -1 -4 2 -6 7 -5 16 5 64 -55
89 -112 14 -30 29 -58 34 -61 8 -5 15 -33 20 -77 1 -8 9 -11 20 -9 10 3 16 1
13 -3 -3 -5 19 -35 47 -67 29 -32 45 -52 36 -44 -35 27 -17 -6 31 -59 30 -32
52 -68 56 -87 3 -18 10 -33 15 -33 6 0 10 -7 10 -15 0 -18 17 -20 23 -2 6 15
27 -3 31 -26 3 -22 27 -48 37 -41 5 3 18 -14 29 -38 11 -24 20 -35 20 -26 0 9
8 19 18 21 15 4 15 5 1 6 -9 0 -19 8 -23 16 -5 13 -1 13 27 1 19 -8 31 -20 31
-29 -1 -9 2 -15 6 -12 5 3 20 -9 35 -26 20 -25 23 -34 13 -41 -9 -6 -7 -8 7
-6 11 2 28 12 38 22 9 11 17 14 17 7 0 -7 4 -10 8 -7 5 3 19 -8 31 -24 l22
-30 -28 -48 c-36 -61 -67 -107 -84 -125 -63 -63 -329 -255 -346 -250 -6 2 -15
-1 -19 -8 -4 -8 -3 -9 4 -5 7 4 12 2 12 -3 0 -17 -25 -13 -41 7 -8 9 -26 42
-39 72 -13 30 -45 93 -71 140 -25 47 -70 132 -99 190 -30 58 -70 132 -90 165
-20 34 -39 68 -43 75 -4 8 -23 35 -42 60 -19 25 -40 55 -47 68 -6 12 -17 22
-24 22 -7 0 -14 6 -17 13 -4 9 -7 9 -18 0 -7 -8 -9 -13 -2 -13 9 0 20 -14 78
-104 l19 -29 -24 13 c-70 36 -110 66 -110 84 0 14 -3 17 -11 9 -19 -19 -179
80 -179 111 0 7 10 18 23 25 13 7 29 21 36 32 11 19 10 20 -11 14 -35 -11
-156 -70 -219 -107 -185 -109 -249 -150 -244 -158 3 -4 -3 -14 -13 -21 -15
-13 -16 -12 -3 4 19 25 5 21 -35 -9 l-34 -26 0 -389 0 -389 1646 0 1646 0 -61
112 c-33 62 -134 259 -223 437 l-163 323 -90 62 c-49 34 -102 67 -118 74 -15
6 -68 42 -118 78 -49 36 -92 65 -94 63 -3 -4 25 -29 178 -157 29 -24 61 -47
72 -52 17 -7 16 -9 -10 -9 -33 0 -150 85 -150 110 -1 8 -7 13 -14 11 -7 -1
-10 2 -7 7 3 4 -12 21 -33 36 -22 14 -41 32 -44 38 -9 26 29 207 50 235 11 15
35 80 53 143 18 63 41 137 51 164 26 72 47 170 52 245 4 51 11 76 35 113 16
26 35 74 41 107 10 51 15 60 34 60 58 0 67 9 67 66 0 48 -3 55 -33 78 -19 14
-45 47 -59 73 -30 56 -26 74 25 124 19 19 42 48 51 66 9 18 25 40 35 50 18 17
19 22 5 78 -7 33 -14 92 -14 130 0 45 -6 77 -15 89 -8 10 -17 39 -21 65 -4 25
-26 86 -49 136 -23 49 -48 108 -55 130 -25 79 -74 161 -133 225 -33 36 -68 79
-78 95 -10 17 -44 46 -76 65 -32 19 -70 47 -85 61 -40 39 -228 115 -360 145
-62 15 -140 33 -173 40 -90 21 -313 27 -346 9z m161 -136 c0 -6 -4 -7 -10 -4
-5 3 -10 11 -10 16 0 6 5 7 10 4 6 -3 10 -11 10 -16z m-63 -61 c-3 -8 -6 -5
-6 6 -1 11 2 17 5 13 3 -3 4 -12 1 -19z m43 16 c0 -8 -19 -13 -24 -6 -3 5 1 9
9 9 8 0 15 -2 15 -3z m1149 -1354 c30 -51 41 -79 37 -95 -10 -38 -33 -38 -46
-1 -6 18 -21 42 -33 54 -18 17 -21 29 -19 71 2 28 7 49 11 47 4 -3 26 -37 50
-76z m-1959 39 c0 -6 -4 -7 -10 -4 -5 3 -10 11 -10 16 0 6 5 7 10 4 6 -3 10
-11 10 -16z m-16 -26 c4 -9 3 -19 -2 -22 -4 -3 -18 -20 -30 -38 -27 -38 -30
-132 -7 -177 9 -16 13 -31 10 -34 -11 -11 -35 71 -35 119 0 51 35 169 50 169
4 0 11 -8 14 -17z m170 -28 c3 -8 1 -15 -4 -15 -6 0 -10 7 -10 15 0 8 2 15 4
15 2 0 6 -7 10 -15z m1762 -66 c15 -29 18 -78 8 -116 -4 -16 -14 -23 -30 -23
-24 0 -24 2 -24 96 0 86 2 95 16 83 8 -7 22 -25 30 -40z m-1679 35 c-3 -3 -12
-4 -19 -1 -8 3 -5 6 6 6 11 1 17 -2 13 -5z m-84 -24 c3 -11 1 -18 -4 -14 -5 3
-9 12 -9 20 0 20 7 17 13 -6z m66 -77 c2 -2 -5 -3 -17 -3 -14 0 -22 6 -22 16
0 14 3 15 18 3 9 -7 19 -15 21 -16z m-153 -34 c-15 -34 -15 -34 -9 -4 7 35 13
48 20 42 2 -3 -3 -20 -11 -38z m191 25 c-3 -3 -12 -4 -19 -1 -8 3 -5 6 6 6 11
1 17 -2 13 -5z m-165 -49 c3 -13 1 -22 -3 -19 -9 5 -13 44 -5 44 2 0 6 -11 8
-25z m878 -117 c-26 -56 -69 -108 -108 -131 -21 -12 -11 2 32 45 41 42 66 78
76 107 8 24 16 39 18 33 1 -5 -6 -30 -18 -54z m485 -152 c6 -4 1 -4 -10 2 -11
6 -31 23 -45 39 l-25 28 35 -30 c19 -16 40 -34 45 -39z m-635 0 c0 -2 -7 -7
-16 -10 -8 -3 -12 -2 -9 4 6 10 25 14 25 6z m743 -33 c-7 -2 -21 -2 -30 0 -10
3 -4 5 12 5 17 0 24 -2 18 -5z m-44 -1099 c-14 -18 -24 -11 -15 11 3 9 11 13
16 10 8 -5 7 -11 -1 -21z m311 7 c0 -6 -4 -13 -10 -16 -5 -3 -10 1 -10 9 0 9
5 16 10 16 6 0 10 -4 10 -9z m-244 -32 c10 -12 38 -30 60 -39 58 -25 61 -36
12 -43 -30 -4 -53 0 -82 14 -22 10 -43 19 -48 19 -4 0 -8 -20 -8 -45 0 -25 -4
-45 -8 -45 -4 0 -9 -12 -10 -27 -1 -14 -5 -29 -8 -32 -4 -3 -4 32 -1 79 5 84
5 85 -13 63 -23 -29 -30 -29 -25 -2 7 35 46 56 92 50 8 -1 10 5 7 14 -9 22 10
18 32 -6z m209 -110 c5 -5 -2 -9 -20 -10 -29 0 -28 -1 10 -15 22 -8 45 -12 52
-10 34 13 6 -15 -61 -62 -41 -28 -105 -78 -143 -110 -56 -48 -71 -57 -81 -46
-20 22 -14 34 18 30 44 -5 56 16 21 37 -21 12 -28 23 -24 37 3 11 10 20 15 20
5 0 7 4 4 8 -3 5 3 18 14 29 10 12 26 37 34 57 14 35 52 56 75 42 5 -4 13 -1
16 5 8 11 54 4 70 -12z m-511 -95 c3 -9 6 -24 6 -35 0 -17 -3 -18 -21 -9 -16
9 -18 14 -9 25 7 8 9 19 5 25 -3 5 -2 10 3 10 6 0 13 -7 16 -16z m234 -59 c-3
-3 -9 2 -12 12 -6 14 -5 15 5 6 7 -7 10 -15 7 -18z m-43 -106 c76 -19 131 -51
119 -70 -10 -16 -24 -9 -24 11 0 31 -60 40 -185 26 l-70 -7 -39 41 c-52 54
-37 65 53 38 36 -10 102 -28 146 -39z"/>
<path d="M2655 730 c3 -5 11 -10 16 -10 6 0 7 5 4 10 -3 6 -11 10 -16 10 -6 0
-7 -4 -4 -10z"/>
<path d="M995 1103 c-11 -3 -24 -9 -29 -14 -17 -15 29 -10 50 6 19 15 15 16
-21 8z"/>
<path d="M1040 1062 c0 -17 30 -75 36 -69 3 3 -4 22 -15 44 -11 21 -20 32 -21
25z"/>
<path d="M1460 916 c0 -2 8 -10 18 -17 15 -13 16 -12 3 4 -13 16 -21 21 -21
13z"/>
<path d="M1177 868 c-8 -5 -5 -8 8 -8 11 0 27 5 35 10 12 7 10 9 -8 7 -13 -1
-28 -5 -35 -9z"/>
<path d="M1479 861 c11 -20 56 -76 129 -159 25 -30 76 -95 114 -145 37 -51 79
-105 94 -122 14 -16 29 -36 33 -44 5 -8 16 -11 30 -6 20 6 20 6 1 27 -10 11
-26 36 -35 54 -8 18 -26 41 -39 51 -13 10 -31 32 -40 48 -26 48 -76 102 -76
82 0 -9 11 -24 25 -33 14 -9 25 -21 25 -26 0 -5 7 -16 15 -25 9 -8 14 -18 11
-20 -6 -6 -62 50 -76 77 -6 12 -9 28 -6 38 3 10 -6 31 -24 52 -90 104 -156
170 -173 170 -14 0 -16 -4 -8 -19z m311 -352 c0 -5 -4 -9 -10 -9 -5 0 -10 7
-10 16 0 8 5 12 10 9 6 -3 10 -10 10 -16z"/>
<path d="M1285 710 c3 -5 10 -10 16 -10 5 0 9 5 9 10 0 6 -7 10 -16 10 -8 0
-12 -4 -9 -10z"/>
<path d="M1324 639 c-9 -16 2 -21 48 -25 50 -4 78 3 78 19 0 15 -117 20 -126
6z"/>
<path d="M1894 580 c0 -11 1 -20 3 -20 1 0 7 9 13 20 8 15 8 20 -3 20 -7 0
-13 -9 -13 -20z"/>
<path d="M1864 559 c-3 -6 -1 -16 4 -21 8 -8 11 -5 9 11 -1 24 -3 25 -13 10z"/>
<path d="M1410 453 c1 -5 9 -24 20 -43 23 -42 27 -26 4 18 -15 31 -24 40 -24
25z"/>
<path d="M1600 380 c-8 -5 -12 -11 -10 -14 3 -2 14 2 24 10 22 15 10 19 -14 4z"/>
<path d="M1473 334 c-8 -20 18 -46 35 -35 12 7 12 12 1 30 -16 25 -27 27 -36
5z"/>
<path d="M1526 260 c4 -13 13 -30 20 -38 8 -7 14 -19 14 -27 0 -7 7 -15 15
-19 8 -3 15 -2 15 3 0 5 -7 14 -15 21 -8 7 -15 18 -15 25 0 7 -9 23 -21 36
l-20 24 7 -25z"/>
</g>
</svg>
