<?xml version="1.0" encoding="iso-8859-1"?>
<!-- Generator: Adobe Illustrator 19.0.0, SVG Export Plug-In . SVG Version: 6.00 Build 0)  -->
<svg version="1.1" id="Layer_1" xmlns="http://www.w3.org/2000/svg" xmlns:xlink="http://www.w3.org/1999/xlink" x="0px" y="0px"
	 viewBox="0 0 512 512" style="enable-background:new 0 0 512 512;" xml:space="preserve">
<g>
	<g>
		<g>
			<circle cx="157.109" cy="198.183" r="18.517"/>
			<path d="M397.452,377.705V21.43c0-11.835-9.595-21.43-21.43-21.43c-11.835,0-21.43,9.595-21.43,21.43v86.762H243.514V42.86h23.93
				c11.835,0,21.43-9.595,21.43-21.43c0-11.835-9.595-21.43-21.43-21.43C260.675,0,55.812,0,46.77,0
				C34.935,0,25.34,9.595,25.34,21.43c0,11.835,9.595,21.43,21.43,21.43H70.7v65.332H46.77c-11.835,0-21.43,9.595-21.43,21.43
				s9.595,21.43,21.43,21.43H70.7v73.177c0,47.646,38.762,86.408,86.406,86.408c47.644,0,86.408-38.762,86.408-86.408v-73.177
				h111.078v226.653c-48.223,9.505-89.208,50.847-89.208,112.865c0,11.835,9.595,21.43,21.43,21.43H465.23
				c11.835,0,21.43-9.595,21.43-21.43C486.66,429.698,446.803,387.433,397.452,377.705z M200.655,224.229
				c0,24.013-19.535,43.548-43.548,43.548c-24.013,0-43.547-19.535-43.547-43.548v-73.177h87.095V224.229z M200.655,108.192H113.56
				V42.86h87.095V108.192z M310.428,469.14c7.598-29.12,34.126-50.677,65.594-50.677c31.466,0,57.995,21.556,65.592,50.677H310.428z
				"/>
		</g>
	</g>
</g>
<g>
</g>
<g>
</g>
<g>
</g>
<g>
</g>
<g>
</g>
<g>
</g>
<g>
</g>
<g>
</g>
<g>
</g>
<g>
</g>
<g>
</g>
<g>
</g>
<g>
</g>
<g>
</g>
<g>
</g>
</svg>
