<?xml version="1.0"?>
<svg xmlns="http://www.w3.org/2000/svg" viewBox="0 0 64 64">
    <path d="M 29 0.056640625 C 28.448 0.056640625 28 0.50364063 28 1.0566406 L 28 10 L 17 10 L 15 10 C 14.448 10 14 10.447 14 11 C 14 11.553 14.448 12 15 12 L 16 12 L 16 32 L 5 32 C 3.346 32 2 33.346 2 35 C 2 36.302 2.839 37.402406 4 37.816406 L 4 62 L 1 62 C 0.448 62 0 62.447 0 63 C 0 63.553 0.448 64 1 64 L 5 64 L 17 64 L 45 64 L 58 64 L 60 64 L 63 64 C 63.552 64 64 63.553 64 63 C 64 62.447 63.552 62 63 62 L 60 62 L 60 28 L 61 28 C 61.552 28 62 27.553 62 27 C 62 26.447 61.552 26 61 26 L 60 26 L 52 26 L 52 24 C 52 22.897 51.103 22 50 22 L 46 22 L 46 12 L 47 12 C 47.552 12 48 11.553 48 11 C 48 10.447 47.552 10 47 10 L 45 10 L 34 10 L 34 6.0566406 C 34 5.5036406 33.552 5.0566406 33 5.0566406 C 32.448 5.0566406 32 5.5036406 32 6.0566406 L 32 10 L 30 10 L 30 1.0566406 C 30 0.50364062 29.552 0.056640625 29 0.056640625 z M 18 12 L 44 12 L 44 62 L 18 62 L 18 38 L 18 37 L 18 36 L 18 34 L 18 32 L 18 12 z M 23 16 C 22.448 16 22 16.447 22 17 L 22 23 C 22 23.553 22.448 24 23 24 C 23.552 24 24 23.553 24 23 L 24 17 C 24 16.447 23.552 16 23 16 z M 31 16 C 30.448 16 30 16.447 30 17 L 30 19 C 30 19.553 30.448 20 31 20 C 31.552 20 32 19.553 32 19 L 32 17 C 32 16.447 31.552 16 31 16 z M 39 16 C 38.448 16 38 16.447 38 17 L 38 23 C 38 23.553 38.448 24 39 24 C 39.552 24 40 23.553 40 23 L 40 17 C 40 16.447 39.552 16 39 16 z M 31 24 C 30.448 24 30 24.447 30 25 L 30 26 C 27.794 26 26 27.794 26 30 L 26 31 C 26 33.206 27.794 35 30 35 L 32 35 C 33.103 35 34 35.897 34 37 L 34 38 C 34 39.103 33.103 40 32 40 L 32 37 C 32 36.447 31.552 36 31 36 C 30.448 36 30 36.447 30 37 L 30 40 C 28.897 40 28 39.103 28 38 C 28 37.447 27.552 37 27 37 C 26.448 37 26 37.447 26 38 C 26 40.206 27.794 42 30 42 L 30 43 C 30 43.553 30.448 44 31 44 C 31.552 44 32 43.553 32 43 L 32 42 C 34.206 42 36 40.206 36 38 L 36 37 C 36 34.794 34.206 33 32 33 L 32 30 C 32 29.447 31.552 29 31 29 C 30.448 29 30 29.447 30 30 L 30 33 C 28.897 33 28 32.103 28 31 L 28 30 C 28 28.897 28.897 28 30 28 L 32 28 C 33.103 28 34 28.897 34 30 C 34 30.553 34.448 31 35 31 C 35.552 31 36 30.553 36 30 C 36 27.794 34.206 26 32 26 L 32 25 C 32 24.447 31.552 24 31 24 z M 46 24 L 50 24 L 50 28 L 58 28 L 58 40 L 48 40 C 47.448 40 47 40.447 47 41 C 47 41.553 47.448 42 48 42 L 58 42 L 58 62 L 46 62 L 46 24 z M 51 30 C 50.448 30 50 30.447 50 31 C 50 31.553 50.448 32 51 32 L 53 32 C 53.552 32 54 31.553 54 31 C 54 30.447 53.552 30 53 30 L 51 30 z M 5 34 L 16 34 L 16 36 L 5 36 C 4.449 36 4 35.552 4 35 C 4 34.448 4.449 34 5 34 z M 51 34 C 50.448 34 50 34.447 50 35 C 50 35.553 50.448 36 51 36 L 53 36 C 53.552 36 54 35.553 54 35 C 54 34.447 53.552 34 53 34 L 51 34 z M 6 38 L 16 38 L 16 62 L 14 62 L 14 57.949219 C 14 56.846219 13.103 55.949219 12 55.949219 L 10 55.949219 C 8.897 55.949219 8 56.846219 8 57.949219 L 8 62 L 6 62 L 6 38 z M 10 40 C 9.448 40 9 40.447 9 41 C 9 41.553 9.448 42 10 42 L 12 42 C 12.552 42 13 41.553 13 41 C 13 40.447 12.552 40 12 40 L 10 40 z M 10 44 C 9.448 44 9 44.447 9 45 C 9 45.553 9.448 46 10 46 L 12 46 C 12.552 46 13 45.553 13 45 C 13 44.447 12.552 44 12 44 L 10 44 z M 23 44 C 22.448 44 22 44.447 22 45 L 22 51 C 22 51.553 22.448 52 23 52 C 23.552 52 24 51.553 24 51 L 24 45 C 24 44.447 23.552 44 23 44 z M 39 44 C 38.448 44 38 44.447 38 45 L 38 57 C 38 57.553 38.448 58 39 58 C 39.552 58 40 57.553 40 57 L 40 45 C 40 44.447 39.552 44 39 44 z M 51 44 C 50.448 44 50 44.447 50 45 C 50 45.553 50.448 46 51 46 L 53 46 C 53.552 46 54 45.553 54 45 C 54 44.447 53.552 44 53 44 L 51 44 z M 10 48 C 9.448 48 9 48.447 9 49 C 9 49.553 9.448 50 10 50 L 12 50 C 12.552 50 13 49.553 13 49 C 13 48.447 12.552 48 12 48 L 10 48 z M 31 48 C 30.448 48 30 48.447 30 49 L 30 57 C 30 57.553 30.448 58 31 58 C 31.552 58 32 57.553 32 57 L 32 49 C 32 48.447 31.552 48 31 48 z M 51 48 C 50.448 48 50 48.447 50 49 C 50 49.553 50.448 50 51 50 L 53 50 C 53.552 50 54 49.553 54 49 C 54 48.447 53.552 48 53 48 L 51 48 z M 10 52 C 9.448 52 9 52.447 9 53 C 9 53.553 9.448 54 10 54 L 12 54 C 12.552 54 13 53.553 13 53 C 13 52.447 12.552 52 12 52 L 10 52 z M 51 52 C 50.448 52 50 52.447 50 53 C 50 53.553 50.448 54 51 54 L 53 54 C 53.552 54 54 53.553 54 53 C 54 52.447 53.552 52 53 52 L 51 52 z M 23 54 C 22.448 54 22 54.447 22 55 L 22 57 C 22 57.553 22.448 58 23 58 C 23.552 58 24 57.553 24 57 L 24 55 C 24 54.447 23.552 54 23 54 z M 51 56 C 50.448 56 50 56.447 50 57 C 50 57.553 50.448 58 51 58 L 53 58 C 53.552 58 54 57.553 54 57 C 54 56.447 53.552 56 53 56 L 51 56 z M 9.9980469 57.949219 L 12 57.949219 L 12 61.949219 L 10 61.949219 L 9.9980469 57.949219 z"/>
</svg>
