<?xml version="1.0" encoding="iso-8859-1"?>
<!-- Generator: Adobe Illustrator 18.1.1, SVG Export Plug-In . SVG Version: 6.00 Build 0)  -->
<svg version="1.1" id="Capa_1" xmlns="http://www.w3.org/2000/svg" xmlns:xlink="http://www.w3.org/1999/xlink" x="0px" y="0px"
	 viewBox="0 0 331.044 331.044" style="enable-background:new 0 0 331.044 331.044;" xml:space="preserve">
<g>
	<g>
		<g>
			<g id="Layer_5_1_">
				<g>
					<path d="M241.596,0H89.447C72.846,0,59.34,13.506,59.34,30.107c0,13.238,8.589,24.504,20.487,28.527
						c1.576,0.533,4.889,1.14,4.889,6.015v33.153v152.435c0,44.557,36.249,80.807,80.805,80.807s80.805-36.25,80.805-80.807V97.803
						V63.691c0-3.833,2.795-4.4,4.139-4.814c12.285-3.793,21.238-15.255,21.238-28.771C271.703,13.506,258.197,0,241.596,0z
						 M222.206,266.898h-20.217c-3.866,0-7-3.134-7-7c0-3.865,3.134-7,7-7h20.217c3.867,0,7,3.135,7,7
						C229.206,263.766,226.073,266.898,222.206,266.898z M222.206,223.4h-52.323c-3.867,0-7-3.134-7-7c0-3.865,3.134-7,7-7h52.323
						c3.867,0,7,3.135,7,7C229.206,220.268,226.073,223.4,222.206,223.4z M222.206,179.902h-20.217c-3.866,0-7-3.136-7-7
						c0-3.866,3.134-7,7-7h20.217c3.867,0,7,3.134,7,7C229.206,176.768,226.073,179.902,222.206,179.902z M222.206,136.404h-52.323
						c-3.867,0-7-3.134-7-7s3.134-7,7-7h52.323c3.867,0,7,3.134,7,7S226.073,136.404,222.206,136.404z M232.327,95.108
						c0,0,0.328,2.695-2.756,2.695c-31.625,0-126.5,0-126.5,0s-4.355,0.472-4.355-3.528c0-7.563,0-21.805,0-30.25
						c0-4.125,4.23-3.811,4.23-3.811h126.208c0,0,3.173,0.061,3.173,3.228C232.327,72.031,232.327,95.108,232.327,95.108z
						 M244.573,45.926H86.471c-7.463-1.401-13.13-7.956-13.13-15.819C73.34,21.226,80.566,14,89.447,14h152.15
						c8.883,0,16.107,7.226,16.107,16.107C257.703,37.971,252.036,44.525,244.573,45.926z"/>
				</g>
			</g>
		</g>
	</g>
</g>
<g>
</g>
<g>
</g>
<g>
</g>
<g>
</g>
<g>
</g>
<g>
</g>
<g>
</g>
<g>
</g>
<g>
</g>
<g>
</g>
<g>
</g>
<g>
</g>
<g>
</g>
<g>
</g>
<g>
</g>
</svg>
